<?xml version="1.0" encoding="utf-8"?>
<!-- Generator: Adobe Illustrator 23.0.2, SVG Export Plug-In . SVG Version: 6.00 Build 0)  -->
<svg version="1.1" id="Layer_1" xmlns="http://www.w3.org/2000/svg" xmlns:xlink="http://www.w3.org/1999/xlink" x="0px" y="0px"
	 viewBox="0 0 408.8467 299.7978" enable-background="new 0 0 408.8467 299.7978" xml:space="preserve">
<g>
	<path d="M167.3106,270.8584h9.29v19.6562c0,5.1309,4.1494,9.2832,9.2949,9.2832H204.46c5.1396,0,9.2978-4.1523,9.2978-9.2832
		v-19.6562h148.6407v19.6562c0,5.1309,4.1523,9.2832,9.288,9.2832h18.5743c5.1396,0,9.2968-4.1523,9.2968-9.2832v-19.6562h9.2891
		v-26.7969H167.3106V270.8584z"/>
	<path d="M364.4492,186.9609c-25.4931-3.2539-56.705-6.5019-79.3652-6.498c-34.0195-0.0059-87.2129,7.3095-111.6152,10.9697
		c-2.334,0.3496-4.3926,0.6641-6.1582,0.9365v46.5362h241.5361v-45.586c-1.7637-0.2842-6.0654-0.9707-12.1846-1.8867
		C388.5235,190.2129,377.1973,188.5859,364.4492,186.9609z M202.8965,228.5615c-8.6533,0-15.6572-7.0078-15.6572-15.6543
		c0-8.6484,7.0039-15.6582,15.6572-15.6582c8.6397,0,15.6533,7.0098,15.6533,15.6582
		C218.5498,221.5537,211.5362,228.5615,202.8965,228.5615z M373.2608,228.5615c-8.6397,0-15.6495-7.0078-15.6495-15.6543
		c0-8.6484,7.0098-15.6582,15.6495-15.6582c8.6533,0,15.6552,7.0098,15.6552,15.6582
		C388.916,221.5537,381.9141,228.5615,373.2608,228.5615z"/>
	<path d="M285.084,176.4619c20.1621,0.0039,46.7227,2.5137,70.1973,5.3311l18.8711-79.3594l-2.0743-21.5654h-168l-9.8076,102
		h-4.0185l3.7929-39.4502l-16.2412,43.3291C203.9502,182.916,252.7422,176.4678,285.084,176.4619z M323.7471,118.3428
		l-8.2969,17.0254l9.7686,0.8046l-13.9619,21.3496l-0.8829-0.4023l9.6065-18.9336l-8.8272-0.1094l8.6602-21.3183L323.7471,118.3428z
		 M335.8682,153.126l-19.2246,9.8027l-0.4785-0.6641l15.0087-9.8613l-6.4355-3.791l15.3193-12.0117l2.2207,2.8164l-13.248,9.0117
		L335.8682,153.126z M294.8887,143.0224l-1.1436-19.1318l3.5284-0.2197l-0.128,15.7734l7.6328-2.8984l-2.8379,21.0596
		l-0.8027,0.0117l0.4277-17.6778L294.8887,143.0224z"/>
	<path d="M381.8858,182.8682l-6.7481-70.1797l-16.5264,69.5088c16.1661,1.9843,30.6114,4.0664,40.1075,5.5009l-16.6114-44.33
		l3.7969,39.5H381.8858z"/>
	<path d="M172.1162,128.7529c1.4073-1.8281,2.1534-4.333,2.1192-6.4668c-0.0518-3.2656-1.1729-5.6533-2.4922-7.9092
		c-2.0479-3.3545-4.9795-6.6377-9.2363-10.6875c-3.6065-3.4091-8.1866-7.3086-13.9346-11.833l-6.9258,14.9375
		c5.3506,4.3252,9.3115,7.8721,12.0371,10.6436c-3.0351-0.3984-6.5234-1.0332-9.7695-1.7041
		c-2.7539-0.5586-5.3799-1.1279-7.6631-1.5801c-1.1445-0.2256-2.2022-0.4219-3.2041-0.5771
		c-0.541-0.0782-1.0479-0.1495-1.5869-0.2032c-0.4209-0.0703-0.8516-0.1162-1.293-0.1162H91.5322
		c-0.3681,0-0.7285,0.0352-1.083,0.085c-1.457,0.1396-3.4199,0.5693-5.5771,1.6416c-4.2676,2.0869-8.8486,6.5058-12.4248,14.1514
		c-3.5166,7.4716-6.3535,18.0918-7.8106,33.9023c-0.7734,0.4785-2.3593,1.293-4.3447,1.8975
		c-4.2588,1.4072-10.1631,2.4316-14.831,3.0068c-2.3438,0.2939-4.3965,0.4893-5.8438,0.6094
		c-0.7246,0.0595-1.2988,0.1006-1.6836,0.1279c-0.3838,0.0264-0.5469,0.0342-0.5488,0.0342
		c-4.4111,0.2402-7.791,4.0146-7.5508,8.4258c0.2344,4.2617,3.7637,7.5634,7.9805,7.5634c0.1474,0,0.2959-0.0039,0.4453-0.0127
		c0.208-0.0185,8.8848-0.4755,18.1308-2.292c4.6504-0.9326,9.4151-2.1406,13.7471-4.1669c2.168-1.0362,4.2764-2.2706,6.2354-4.1778
		c1.9238-1.8545,3.7939-4.7666,4.0879-8.3398c0.7421-8.8711,1.9648-15.6953,3.3427-20.8877v142.5527
		c0,6.8301,5.5371,12.3633,12.3633,12.3633c6.8281,0,12.3652-5.5332,12.3652-12.3633v-90.2715h4.6348v90.2715
		c0,6.8301,5.5371,12.3633,12.3633,12.3633c6.8281,0,12.3652-5.5332,12.3652-12.3633V130.8281
		c2.3741,0.4951,5.0235,1.0401,7.7373,1.5322c4.4746,0.7989,9.0567,1.4854,13.4043,1.5c2.709-0.042,5.333-0.1699,8.4258-1.4765
		C168.9873,131.7099,170.7246,130.6055,172.1162,128.7529z"/>
	<path d="M151.1797,81.4775c0.4639-1.0019,0.0293-2.1914-0.9726-2.6562l-13.9112-6.4492c-1.0019-0.4649-2.1904-0.0284-2.6553,0.9736
		l-0.5,1.0791c0.6387,1.333,1.1563,2.7324,1.5498,4.1836l12.5499,5.8193l-9.6739,20.8662l-8.2676-3.833
		c-1.4638,1.6446-3.1435,3.0908-4.9941,4.2979l11.04,5.1181c1.003,0.4649,2.1905,0.0284,2.6553-0.9736L151.1797,81.4775z"/>
	<circle cx="110.8496" cy="85.0586" r="22.5"/>
	<path d="M67.7061,70.4961l14.7441,7.3721L73.333,64.1924c4.8174-6.6631,7.6641-14.8438,7.6641-23.6944
		C80.9971,18.1318,62.8653,0,40.4981,0C18.1319,0,0,18.1318,0,40.498c0,22.3672,18.1319,40.4991,40.4981,40.4991
		C50.9717,80.9971,60.5166,77.0205,67.7061,70.4961z M7.7832,40.6182c0-18.3174,14.8506-33.167,33.167-33.167
		s33.167,14.8496,33.167,33.167c0,8.664-3.3262,16.5488-8.7656,22.457c-1.2022-1.6299-2.4854-2.9492-3.7783-3.9492
		c-0.8545-0.6621-1.711-1.2012-2.5411-1.6153c-2.2451-1.1328-4.2197-1.3945-5.4121-1.4101
		c-0.0849-0.0039-0.167-0.0127-0.2529-0.0127H43.1074l-1.6787,9.7422h-1.6513l-1.6768-9.7422H27.8408
		c-0.0781,0-0.1533,0.0088-0.2295,0.0117c-1.1914,0.0137-3.1777,0.2705-5.4414,1.4092c-0.8378,0.416-1.6894,0.9511-2.539,1.6113
		c-1.1787,0.9141-2.3477,2.0908-3.4649,3.5293C10.9551,56.791,7.7832,49.0762,7.7832,40.6182z"/>
	<path d="M40.6045,52.3232c7.5313,0,13.7481-5.5996,14.7266-12.8633c-1.3399-0.0683-2.7539-0.2128-4.209-0.4394
		c-7.6113-1.1836-13.4795-4.166-13.3096-6.7188c1.0069,2.2852,6.8994,4.043,14.0381,4.043c1.2324,0,2.4209-0.0576,3.5615-0.1562
		c3.8448-0.3321,7.0635-1.1817,8.9209-2.3164c1.0977-0.6739,1.7237-1.4434,1.7237-2.2637c0-2.6143-6.3614-4.7344-14.2061-4.7344
		c-0.2685,0-0.5303,0.0078-0.7949,0.0137c-2.6856-2.6563-6.377-4.2969-10.4512-4.2969c-8.2109,0-14.8672,6.6563-14.8672,14.8662
		C25.7373,45.668,32.3936,52.3232,40.6045,52.3232z"/>
</g>
</svg>
