<?xml version="1.0" encoding="utf-8"?>
<!-- Generator: Adobe Illustrator 16.0.0, SVG Export Plug-In . SVG Version: 6.00 Build 0)  -->
<!DOCTYPE svg PUBLIC "-//W3C//DTD SVG 1.0//EN" "http://www.w3.org/TR/2001/REC-SVG-20010904/DTD/svg10.dtd">
<svg version="1.0" id="Layer_1" xmlns="http://www.w3.org/2000/svg" xmlns:xlink="http://www.w3.org/1999/xlink" x="0px" y="0px"
	 width="100px" height="100px" viewBox="0 0 100 100" enable-background="new 0 0 100 100" xml:space="preserve">
<path d="M85.286,41.953l-1.162-1.162l-2.701,0.674c-10.056,3.45-20.642,5.202-31.455,5.202c-10.777,0-21.338-1.752-31.393-5.202
	l-2.697-0.674l-1.164,1.162C12.12,44.544,10,49.668,10,53.333v30h10l2.673-10.689c18.357,3.125,37.154,2.965,54.651-0.007L80,83.333
	h10v-30C90,49.668,87.878,44.544,85.286,41.953z M31.517,62.259c-1.018,1.43-9.988,1.43-11.006,0c-0.68-0.95-0.68-5.914,0-6.865
	c1.072-1.504,11.006,1.618,11.006,3.435C31.517,59.401,31.854,61.784,31.517,62.259z M79.492,62.263
	c-1.019,1.429-9.99,1.429-11.006,0c-0.339-0.476,0-2.858,0-3.432c0-1.816,9.932-4.938,11.006-3.434
	C80.169,56.348,80.169,61.312,79.492,62.263z"/>
<path d="M77.78,30l-2.338-7.009c-1.162-3.479-5.11-6.324-8.775-6.324H33.333c-3.666,0-7.615,2.845-8.773,6.324L22.224,30h-8.891v5
	L20,36.667c19.993,6.917,41.458,6.412,60,0L86.667,35v-5H77.78z"/>
</svg>
