<?xml version="1.0" encoding="UTF-8" standalone="no"?> <svg id="Layer_1" data-name="Layer 1" xmlns="http://www.w3.org/2000/svg" viewBox="0 0 128 128"><defs><style>.cls-1{fill:#2e79bd;}.cls-2{fill:#2d3e50;}</style></defs><title>b</title><path class="cls-1" d="M26.37235,68.50621V37.25464l7.28556-9.91711a3.10775,3.10775,0,0,0,.47841-2.71182l-6.42-21.96539H15.2468l-6.42,21.96539a3.10775,3.10775,0,0,0,.47841,2.71182l7.28529,9.91674V68.50621H8.702l2.15346,46.68624a10.63738,10.63738,0,0,0,21.25217,0l2.1535-46.68624Z"/><path class="cls-2" d="M105.35443,2.76252a.79954.79954,0,0,0-1.19032.69576V21.87151a4.52882,4.52882,0,0,1-4.52881,4.52881H84.9583a4.52882,4.52882,0,0,1-4.52881-4.52881V3.45828a.79954.79954,0,0,0-1.19032-.69576,27.0097,27.0097,0,0,0,1.8984,48.23174v62.98844a11.32052,11.32052,0,0,0,11.353,11.35538,11.1723,11.1723,0,0,0,10.96535-11.15751V50.9943a27.0097,27.0097,0,0,0,1.89849-48.23179Zm-8.60615,111.418a4.45153,4.45153,0,1,1-8.90306,0V53.03414a27.15407,27.15407,0,0,0,8.90306,0Z"/></svg>